<?xml version="1.0" encoding="UTF-8"?>
<svg id="_Слой_2" data-name="Слой 2" xmlns="http://www.w3.org/2000/svg" viewBox="0 0 123.27 65.95">
  <defs>
    <style>
      .cls-1 {
        stroke-width: 0px;
      }

      .cls-1, .cls-2, .cls-3 {
        fill: #000;
      }

      .cls-4 {
        letter-spacing: 0em;
      }

      .cls-5 {
        letter-spacing: -.08em;
      }

      .cls-6 {
        letter-spacing: 0em;
      }

      .cls-7 {
        letter-spacing: 0em;
      }

      .cls-2 {
        font-family: Candara-Light, Candara;
        font-size: 16px;
        font-weight: 300;
      }

      .cls-8 {
        letter-spacing: 0em;
      }

      .cls-9 {
        letter-spacing: .01em;
      }

      .cls-3 {
        font-family: AcuminConcept-Bold, 'Acumin Variable Concept';
        font-size: 23.54px;
        font-variation-settings: 'wght' 700, 'wdth' 100, 'slnt' 0;
        font-weight: 700;
      }
    </style>
  </defs>
  <g id="_Слой_1-2" data-name="Слой 1">
    <g>
      <text class="cls-3" transform="translate(30.79 49.83) scale(.96 1)"><tspan class="cls-8" x="0" y="0">G</tspan><tspan class="cls-6" x="17.63" y="0">U</tspan><tspan class="cls-9" x="34.76" y="0">I</tspan><tspan class="cls-5" x="42.37" y="0">T</tspan><tspan class="cls-4" x="54.44" y="0">A</tspan><tspan x="70.52" y="0">R</tspan></text>
      <text class="cls-2" transform="translate(53.08 61.83) scale(1.04 1)"><tspan x="0" y="0">SCH</tspan><tspan class="cls-7" x="27.13" y="0">O</tspan><tspan x="38.34" y="0">OL</tspan></text>
      <g>
        <path class="cls-1" d="M28.76,51.62c-.06-.84-3.28-.31-6.07-2.93-1.74-1.64-2.72-5.64-2.93-6.36-.17-.57-1.1-3.33,1.75-6.55,1.95-2.2,4.91-2.59,6.07-2.74,2.81-.37,3.98.55,6.46-.39.84-.32,2.21-.84,3.13-2.15,1.48-2.11,1.56-4.28,2.87-6.35,1.4-2.21,3.18-1.49,3.46-1.43,2.59.49,2.99.76,6,1.33,1.96.37,3.87.51,7.83-.39,29.76-6.74,48.13-14.09,48.13-14.09,1.57-.63,3.72-1.52,6.46-1.17,3,.38,6.26,2.19,6.62,1.66.27-.39-.89.03-.75-.1.2-.18,1.46,1.07,3.52.78.92-.13,1.85-.92,1.96-1.76.13-1.02-1.05-1.43-2.35-3.33-1.51-2.2-.97-3.17-1.96-3.72-1.37-.76-2.43,1.11-6.65,2.35-2.72.8-4.14.57-6.85,1.96-1.07.54-1.79,1.06-1.96,1.17-6.08,4.18-50.98,12.79-50.87,13.89.02.18,1.23.3,1.37,0,.17-.37-1.51-.93-1.96-2.35-.33-1.05.37-1.48.78-3.72.27-1.43.48-2.6,0-3.72-.71-1.64-2.55-2.27-3.33-2.54-3.05-1.05-5.93.12-7.04.59-2.65,1.12-2.77,2.18-6.07,4.5-2.25,1.58-4.24,2.59-7.06,2.78-3.72.24-4.36.5-10.94-1.02-5.73-1.32-8.64-1.75-11.15-.59C2.86,17.26.91,19.55.44,21.34c-1.25,4.77.47,11.9,1.33,14.83.26.88,1.22,4.03,3.52,7.63,1.81,2.83,3.77,4.89,5.28,6.26,1.33,1.26,3.76,3.18,7.24,3.91,5.55,1.17,11.03-1.24,10.96-2.35Z"/>
        <ellipse class="cls-1" cx="112.17" cy="2.54" rx="1.32" ry="1.15"/>
        <ellipse class="cls-1" cx="108.43" cy="3.45" rx="1.32" ry="1.15"/>
        <ellipse class="cls-1" cx="115.61" cy="1.15" rx="1.32" ry="1.15"/>
      </g>
    </g>
  </g>
</svg>