<svg width="246" height="246" viewBox="0 0 246 246" fill="none" xmlns="http://www.w3.org/2000/svg">
<path opacity="0.4" fill-rule="evenodd" clip-rule="evenodd" d="M225.343 54.7506C211.878 34.5994 192.619 18.6482 169.949 9.27843L225.343 54.7506ZM166.892 8.063C159.875 5.38164 152.55 3.3244 144.984 1.95917L237.455 77.8686C234.64 70.7351 231.177 63.9279 227.139 57.5195L166.892 8.063ZM126.611 0.0520305C132.171 0.212391 137.639 0.741728 142.99 1.61641L238.184 79.7604C240.101 84.8641 241.688 90.129 242.92 95.5292L126.611 0.0520305ZM122.999 0C123.664 0 124.328 0.00528251 124.991 0.0158079L243.269 97.11C244.224 101.567 244.938 106.114 245.395 110.736L111.181 0.560356C115.071 0.189628 119.012 0 122.999 0ZM109.778 0.70221C105.581 1.15074 101.447 1.81039 97.3867 2.67033L245.988 124.656C245.995 124.105 245.999 123.553 245.999 123C245.999 119.34 245.839 115.716 245.526 112.137L109.778 0.70221ZM96.1405 2.94108C92.4506 3.76292 88.8232 4.75052 85.2664 5.89565L245.191 137.177C245.616 133.476 245.876 129.725 245.965 125.931L96.1405 2.94108ZM74.2592 10.0346C77.4836 8.64156 80.7794 7.3825 84.1397 6.26448L245.05 138.355C244.611 141.882 244.022 145.364 243.291 148.792L74.2592 10.0346ZM73.231 10.4844L243.051 149.889C242.315 153.19 241.446 156.44 240.451 159.635L64.1898 14.9433C67.1328 13.3382 70.1486 11.8498 73.231 10.4844ZM240.126 160.662C239.108 163.83 237.965 166.942 236.703 169.993L54.7686 20.6435C57.5185 18.8068 60.3466 17.0779 63.2468 15.463L240.126 160.662ZM53.9032 21.2268L236.3 170.956C235.064 173.872 233.719 176.731 232.269 179.528L46.2814 26.8512C48.7464 24.8818 51.2887 23.0053 53.9032 21.2268ZM18.4151 58.2277C16.7802 60.862 15.2419 63.5627 13.8054 66.3247L199.847 219.045C202.273 217.101 204.623 215.068 206.894 212.949L18.4151 58.2277ZM214.076 205.67C212.009 207.945 209.858 210.143 207.628 212.258L18.9503 57.3733C20.5946 54.7718 22.3338 52.2362 24.163 49.7714L214.076 205.67ZM214.746 204.926L24.7628 48.97C26.6491 46.4709 28.6286 44.046 30.6961 41.7005L220.728 197.697C218.825 200.183 216.829 202.595 214.746 204.926ZM221.333 196.9C223.178 194.449 224.934 191.927 226.595 189.338L37.7598 34.3243C35.5456 36.4532 33.411 38.6642 31.3609 40.9525L221.333 196.9ZM38.4889 33.6291L227.135 188.488C228.786 185.868 230.341 183.181 231.795 180.432L45.4861 27.492C43.0764 29.45 40.7424 31.4974 38.4889 33.6291ZM199.046 219.681L13.3372 67.2341C11.9048 70.0454 10.5772 72.9191 9.35977 75.85L191.371 225.262C194.003 223.499 196.563 221.637 199.046 219.681ZM190.499 225.84L8.96262 76.8178C7.59629 80.1883 6.37505 83.6331 5.30664 87.1445L181.091 231.445C184.316 229.714 187.455 227.843 190.499 225.84ZM180.134 231.953C177.145 233.524 174.084 234.975 170.956 236.3L2.53229 98.0418C3.2202 94.7042 4.04332 91.4159 4.99569 88.183L180.134 231.953ZM159.874 240.377C163.286 239.306 166.635 238.091 169.912 236.737L2.3088 99.1521C1.62666 102.624 1.09061 106.148 0.707297 109.718L159.874 240.377ZM0.585027 110.912L158.728 240.731C155.107 241.828 151.415 242.763 147.661 243.527L0.000417465 122.313C0.0214524 118.468 0.218883 114.665 0.585027 110.912ZM146.392 243.779L0 123.606C0.0207356 127.904 0.261845 132.149 0.712605 136.331L133.745 245.537C138.027 245.167 142.247 244.577 146.392 243.779ZM132.31 245.653C129.237 245.883 126.131 246 122.999 246C121.374 246 119.756 245.969 118.146 245.906L3.35977 151.679C2.27369 147.132 1.44015 142.486 0.874806 137.758L132.31 245.653ZM99.4733 243.753C105.017 244.827 110.694 245.528 116.477 245.831L3.75871 153.3C5.17539 158.893 6.97511 164.332 9.12833 169.589L99.4733 243.753ZM9.95715 171.564L97.3803 243.329C89.1073 241.576 81.1414 238.992 73.5742 235.667L22.1789 193.477C17.3965 186.649 13.2902 179.312 9.95715 171.564ZM70.0031 234.03L24.4912 196.669C36.3621 212.517 51.968 225.406 70.0031 234.03Z" fill="url(#paint0_linear_10_244)"/>
<defs>
<linearGradient id="paint0_linear_10_244" x1="122.999" y1="-3.30747e-07" x2="266.807" y2="210.395" gradientUnits="userSpaceOnUse">
<stop stop-color="#CF5F34"/>
<stop offset="0.0001" stop-color="#CF5F34"/>
<stop offset="0.433677" stop-color="#166DEA"/>
<stop offset="0.809357" stop-color="#202021"/>
</linearGradient>
</defs>
</svg>
